<?xml version="1.0" encoding="UTF-8" standalone="no"?>
<!-- Created with Inkscape (http://www.inkscape.org/) -->

<svg
   width="157.12442mm"
   height="18.084801mm"
   viewBox="0 0 157.12442 18.084801"
   version="1.1"
   id="svg1"
   xmlns="http://www.w3.org/2000/svg"
   xmlns:svg="http://www.w3.org/2000/svg">
  <defs
     id="defs1">
    <rect
       x="82.114281"
       y="349.42245"
       width="818.52216"
       height="491.81213"
       id="rect1" />
  </defs>
  <g
     id="layer1"
     transform="translate(-23.377322,-97.873318)">
    <path
       style="-inkscape-font-specification:'Tilt Warp';fill-rule:evenodd;stroke-width:1.433;stroke-linecap:square"
       d="m 88.355234,436.73091 q 0,-16.128 0,-32.64 0,-16.512 0,-32.64 5.76,0 11.616,0 5.855996,0 11.615996,0 7.104,0 13.056,2.496 5.952,2.4 10.368,6.816 4.416,4.416 6.816,10.368 2.496,5.856 2.496,12.864 0,7.008 -2.496,12.96 -2.4,5.952 -6.816,10.464 -4.416,4.416 -10.368,6.912 -5.952,2.4 -13.056,2.4 -5.76,0 -11.615996,0 -5.856,0 -11.616,0 z m 23.231996,-50.112 q -1.536,0 -3.168,0 -1.632,0 -3.264,0 0,8.64 0,17.472 0,8.832 0,17.472 1.632,0 3.264,0 1.632,0 3.168,0 4.8,0 8.352,-2.304 3.552,-2.304 5.472,-6.24 1.92,-4.032 1.92,-9.024 0,-4.992 -1.92,-8.928 -1.92,-3.936 -5.472,-6.144 -3.552,-2.304 -8.352,-2.304 z m 41.95209,50.112 q 0,-16.128 0,-32.64 0,-16.512 0,-32.64 9.696,0 19.584,0 9.888,0 19.584,0 0,3.648 0,7.488 0,3.84 0,7.488 -5.568,0 -11.232,0 -5.568,0 -11.136,0 0,2.4 0,4.8 0,2.304 0,4.704 5.088,0 10.272,0 5.184,0 10.176,0 0,3.552 0,7.2 0,3.648 0,7.296 -4.992,0 -10.176,0 -5.184,0 -10.272,0 0,2.784 0,5.664 0,2.88 0,5.664 5.568,0 11.136,0 5.664,0 11.232,0 0,3.648 0,7.488 0,3.84 0,7.488 -9.696,0 -19.584,0 -9.888,0 -19.584,0 z m 50.68798,0 q 0,-16.128 0,-32.64 0,-16.512 0,-32.64 5.76,0 11.52,0 5.856,0 11.616,0 7.296,0 12.768,2.784 5.472,2.688 8.448,7.68 3.072,4.896 3.072,11.52 0,5.664 -2.304,10.08 -2.304,4.416 -6.24,7.2 3.84,6.432 7.68,13.056 3.936,6.528 7.776,12.96 -4.704,0 -9.408,0 -4.704,0 -9.408,0 -2.976,-5.376 -6.048,-10.944 -2.976,-5.568 -6.048,-10.944 -1.632,0 -3.36,0 -1.632,0 -3.264,0 0,5.376 0,10.944 0,5.568 0,10.944 -4.128,0 -8.352,0 -4.224,0 -8.448,0 z m 23.136,-50.112 q -1.536,0 -3.168,0 -1.536,0 -3.168,0 0,3.552 0,7.104 0,3.552 0,7.104 1.824,0 3.648,0 1.824,0 3.648,0 2.88,0 4.704,-2.016 1.824,-2.112 1.824,-5.088 0,-3.072 -2.016,-5.088 -1.92,-2.016 -5.472,-2.016 z m 36.95995,50.112 q 0,-16.128 0,-32.64 0,-16.512 0,-32.64 5.952,0 11.904,0 6.048,0 11.904,0 6.624,0 11.616,2.4 4.992,2.304 7.776,6.528 2.784,4.128 2.784,9.792 0,4.032 -1.536,7.296 -1.536,3.264 -4.608,5.472 4.032,2.4 6.144,6.24 2.112,3.744 2.112,8.352 0,5.76 -2.976,10.08 -2.88,4.32 -8.16,6.72 -5.184,2.4 -12.192,2.4 -6.144,0 -12.384,0 -6.24,0 -12.384,0 z m 29.184,-44.928 q 0,0 0,0 0,0 0,0 0,-2.496 -1.536,-4.032 -1.536,-1.632 -4.032,-1.632 -1.728,0 -3.552,0 -1.728,0 -3.456,0 0,2.688 0,5.568 0,2.784 0,5.568 1.728,0 3.456,0 1.824,0 3.552,0 2.496,0 4.032,-1.44 1.536,-1.536 1.536,-4.032 z m 2.112,24.192 q 0,0 0,0 0,0 0,0 0,-2.688 -1.824,-4.224 -1.728,-1.632 -4.8,-1.632 -2.016,0 -4.032,0 -2.016,0 -4.032,0 0,2.976 0,5.952 0,2.976 0,5.952 2.016,0 4.032,0 2.016,0 4.032,0 3.072,0 4.8,-1.632 1.824,-1.632 1.824,-4.416 z m 38.11202,20.736 q 0,-5.856 0,-11.808 0,-5.952 0,-11.808 -5.088,-10.272 -10.368,-20.832 -5.28,-10.56 -10.368,-20.832 4.416,0 8.928,0 4.512,0 8.928,0 2.784,5.856 5.664,11.808 2.976,5.856 5.76,11.712 2.784,-5.856 5.664,-11.712 2.88,-5.952 5.664,-11.808 4.416,0 8.832,0 4.416,0 8.832,0 -5.088,10.272 -10.368,20.832 -5.28,10.56 -10.368,20.832 0,5.856 0,11.808 0,5.952 0,11.808 -4.128,0 -8.352,0 -4.224,0 -8.448,0 z m 43.39209,0 q 0,-16.128 0,-32.64 0,-16.512 0,-32.64 5.952,0 11.904,0 6.048,0 11.904,0 6.624,0 11.616,2.4 4.992,2.304 7.776,6.528 2.784,4.128 2.784,9.792 0,4.032 -1.536,7.296 -1.536,3.264 -4.608,5.472 4.032,2.4 6.144,6.24 2.112,3.744 2.112,8.352 0,5.76 -2.976,10.08 -2.88,4.32 -8.16,6.72 -5.184,2.4 -12.192,2.4 -6.144,0 -12.384,0 -6.24,0 -12.384,0 z m 29.184,-44.928 q 0,0 0,0 0,0 0,0 0,-2.496 -1.536,-4.032 -1.536,-1.632 -4.032,-1.632 -1.728,0 -3.552,0 -1.728,0 -3.456,0 0,2.688 0,5.568 0,2.784 0,5.568 1.728,0 3.456,0 1.824,0 3.552,0 2.496,0 4.032,-1.44 1.536,-1.536 1.536,-4.032 z m 2.112,24.192 q 0,0 0,0 0,0 0,0 0,-2.688 -1.824,-4.224 -1.728,-1.632 -4.8,-1.632 -2.016,0 -4.032,0 -2.016,0 -4.032,0 0,2.976 0,5.952 0,2.976 0,5.952 2.016,0 4.032,0 2.016,0 4.032,0 3.072,0 4.8,-1.632 1.824,-1.632 1.824,-4.416 z m 55.00807,22.272 q 0,0 0,0 0,0 0,0 -7.008,0 -12.96,-2.496 -5.952,-2.592 -10.272,-7.2 -4.32,-4.608 -6.72,-10.848 -2.4,-6.336 -2.4,-13.728 0,-7.392 2.4,-13.632 2.4,-6.24 6.72,-10.752 4.32,-4.608 10.272,-7.104 5.952,-2.592 12.96,-2.592 7.008,0 12.864,2.592 5.952,2.496 10.272,7.104 4.416,4.512 6.816,10.752 2.4,6.24 2.4,13.632 0,7.392 -2.4,13.728 -2.4,6.24 -6.816,10.848 -4.32,4.608 -10.272,7.2 -5.856,2.496 -12.864,2.496 z m 0,-15.552 q 0,0 0,0 0,0 0,0 4.704,0 8.064,-2.304 3.36,-2.4 5.184,-6.624 1.92,-4.224 1.92,-9.792 0,-5.568 -1.92,-9.696 -1.824,-4.128 -5.184,-6.432 -3.36,-2.4 -8.064,-2.4 -4.608,0 -8.064,2.304 -3.36,2.304 -5.28,6.528 -1.824,4.128 -1.824,9.696 0,5.568 1.824,9.792 1.92,4.224 5.28,6.624 3.456,2.304 8.064,2.304 z m 33.40796,14.016 q 4.992,-16.128 9.984,-32.64 5.088,-16.512 10.08,-32.64 5.664,0 11.424,0 5.856,0 11.52,0 4.992,16.128 9.984,32.64 5.088,16.512 10.08,32.64 -4.128,0 -8.448,0 -4.224,0 -8.448,0 -0.96,-3.072 -1.824,-6.144 -0.864,-3.168 -1.824,-6.24 -5.472,0 -11.04,0 -5.472,0 -10.944,0 -0.96,3.072 -1.824,6.24 -0.864,3.072 -1.824,6.144 -4.128,0 -8.448,0 -4.224,0 -8.448,0 z m 24.768,-26.688 q 3.36,0 6.72,0 3.456,0 6.816,0 -1.632,-5.664 -3.36,-11.424 -1.728,-5.76 -3.36,-11.424 -1.632,5.664 -3.456,11.424 -1.728,5.76 -3.36,11.424 z m 44.54396,26.688 q 0,-16.128 0,-32.64 0,-16.512 0,-32.64 5.76,0 11.52,0 5.856,0 11.616,0 7.296,0 12.768,2.784 5.472,2.688 8.448,7.68 3.072,4.896 3.072,11.52 0,5.664 -2.304,10.08 -2.304,4.416 -6.24,7.2 3.84,6.432 7.68,13.056 3.936,6.528 7.776,12.96 -4.704,0 -9.408,0 -4.704,0 -9.408,0 -2.976,-5.376 -6.048,-10.944 -2.976,-5.568 -6.048,-10.944 -1.632,0 -3.36,0 -1.632,0 -3.264,0 0,5.376 0,10.944 0,5.568 0,10.944 -4.128,0 -8.352,0 -4.224,0 -8.448,0 z m 23.136,-50.112 q -1.536,0 -3.168,0 -1.536,0 -3.168,0 0,3.552 0,7.104 0,3.552 0,7.104 1.824,0 3.648,0 1.824,0 3.648,0 2.88,0 4.704,-2.016 1.824,-2.112 1.824,-5.088 0,-3.072 -2.016,-5.088 -1.92,-2.016 -5.472,-2.016 z m 36.95995,50.112 q 0,-16.128 0,-32.64 0,-16.512 0,-32.64 5.76,0 11.616,0 5.856,0 11.616,0 7.104,0 13.056,2.496 5.952,2.4 10.368,6.816 4.416,4.416 6.816,10.368 2.496,5.856 2.496,12.864 0,7.008 -2.496,12.96 -2.4,5.952 -6.816,10.464 -4.416,4.416 -10.368,6.912 -5.952,2.4 -13.056,2.4 -5.76,0 -11.616,0 -5.856,0 -11.616,0 z m 23.232,-50.112 q -1.536,0 -3.168,0 -1.632,0 -3.264,0 0,8.64 0,17.472 0,8.832 0,17.472 1.632,0 3.264,0 1.632,0 3.168,0 4.8,0 8.352,-2.304 3.552,-2.304 5.472,-6.24 1.92,-4.032 1.92,-9.024 0,-4.992 -1.92,-8.928 -1.92,-3.936 -5.472,-6.144 -3.552,-2.304 -8.352,-2.304 z"
       id="text1"
       transform="scale(0.26458333)"
       aria-label="DERBYBOARD" />
  </g>
</svg>
